<svg xmlns="http://www.w3.org/2000/svg" viewBox="0 0 64 64" width="64" height="64">
  <defs>
    <linearGradient id="g" x1="0" y1="0" x2="1" y2="1">
      <stop offset="0" stop-color="#2563eb" />
      <stop offset="1" stop-color="#14b8a6" />
    </linearGradient>
  </defs>
  <rect width="64" height="64" rx="16" fill="url(#g)" />
  <path
    fill="#fff"
    d="M32 14a7 7 0 0 0-7 7v9a7 7 0 0 0 14 0v-9a7 7 0 0 0-7-7Zm12 16a2 2 0 0 0-4 0 8 8 0 0 1-16 0 2 2 0 0 0-4 0 12 12 0 0 0 10 11.8V46h-4a2 2 0 0 0 0 4h12a2 2 0 0 0 0-4h-4v-4.2A12 12 0 0 0 44 30Z"
  />
</svg>
